HIERARCHY
ROOT Pelvis
{
	OFFSET 0.000000 0.000000 0.000000
	CHANNELS 6 Xposition Yposition Zposition Xrotation Yrotation Zrotation
	JOINT LeftUpLeg_virtual
	{
		OFFSET 0.000000 0.000000 0.000000
		CHANNELS 3 Xrotation Yrotation Zrotation
		JOINT LeftUpLeg
		{
			OFFSET 8.479700 -4.795502 -0.379100
			CHANNELS 3 Xrotation Yrotation Zrotation
			JOINT LeftLeg
			{
				OFFSET 0.024144 -32.555107 0.112900
				CHANNELS 3 Xrotation Yrotation Zrotation
				JOINT LeftFoot
				{
					OFFSET -0.024144 -32.638630 -3.012600
					CHANNELS 3 Xrotation Yrotation Zrotation
					JOINT LeftToeBase
					{
						OFFSET 0.970200 -13.225400 11.864200
						CHANNELS 3 Xrotation Yrotation Zrotation
						End Site
						{
							OFFSET 0 0 0
						}
					}
				}
			}
		}
	}
	JOINT RightUpLeg_virtual
	{
		OFFSET 0.000000 0.000000 0.000000
		CHANNELS 3 Xrotation Yrotation Zrotation
		JOINT RightUpLeg
		{
			OFFSET -8.479700 -4.795502 -0.379100
			CHANNELS 3 Xrotation Yrotation Zrotation
			JOINT RightLeg
			{
				OFFSET -0.023144 -32.555092 0.112900
				CHANNELS 3 Xrotation Yrotation Zrotation
				JOINT RightFoot
				{
					OFFSET 0.023144 -32.638641 -3.012700
					CHANNELS 3 Xrotation Yrotation Zrotation
					JOINT RightToeBase
					{
						OFFSET -0.970200 -13.225400 11.864200
						CHANNELS 3 Xrotation Yrotation Zrotation
						End Site
						{
							OFFSET 0 0 0
						}
					}
				}
			}
		}
	}
	JOINT Hips_virtual
	{
		OFFSET 0.000000 0.000000 0.000000
		CHANNELS 3 Xrotation Yrotation Zrotation
		JOINT Hips
		{
			OFFSET -0.000000 -0.000000 -0.000000
			CHANNELS 3 Xrotation Yrotation Zrotation
			JOINT Spine
			{
				OFFSET 0.000000 7.722000 1.166200
				CHANNELS 3 Xrotation Yrotation Zrotation
				JOINT Spine1
				{
					OFFSET 0.000000 12.024101 0.248800
					CHANNELS 3 Xrotation Yrotation Zrotation
					JOINT Spine2
					{
						OFFSET 0.000000 11.502998 -0.491200
						CHANNELS 3 Xrotation Yrotation Zrotation
						JOINT Neck_virtual
						{
							OFFSET 0.000000 0.000000 0.000000
							CHANNELS 3 Xrotation Yrotation Zrotation
							JOINT Neck
							{
								OFFSET 0.000000 18.430702 -3.123100
								CHANNELS 3 Xrotation Yrotation Zrotation
								JOINT Head
								{
									OFFSET 0.000000 9.051102 1.034000
									CHANNELS 3 Xrotation Yrotation Zrotation
									End Site
									{
										OFFSET 0 0 0
									}
								}
							}
						}
						JOINT LeftShoulder_virtual
						{
							OFFSET 0.000000 0.000000 0.000000
							CHANNELS 3 Xrotation Yrotation Zrotation
							JOINT LeftShoulder
							{
								OFFSET 6.197800 13.665199 -4.064700
								CHANNELS 3 Xrotation Yrotation Zrotation
								JOINT LeftArm
								{
									OFFSET 7.778100 -0.187103 -1.709300
									CHANNELS 3 Xrotation Yrotation Zrotation
									JOINT LeftForeArm
									{
										OFFSET 22.049376 0.000000 0.000000
										CHANNELS 3 Xrotation Yrotation Zrotation
										JOINT LeftHand
										{
											OFFSET 23.009392 0.000000 0.000000
											CHANNELS 3 Xrotation Yrotation Zrotation
											End Site
											{
												OFFSET 0 0 0
											}
										}
									}
								}
							}
						}
						JOINT RightShoulder_virtual
						{
							OFFSET 0.000000 0.000000 0.000000
							CHANNELS 3 Xrotation Yrotation Zrotation
							JOINT RightShoulder
							{
								OFFSET -6.197800 13.665199 -4.064700
								CHANNELS 3 Xrotation Yrotation Zrotation
								JOINT RightArm
								{
									OFFSET -7.778100 -0.187103 -1.709300
									CHANNELS 3 Xrotation Yrotation Zrotation
									JOINT RightForeArm
									{
										OFFSET -22.049376 0.000000 0.000000
										CHANNELS 3 Xrotation Yrotation Zrotation
										JOINT RightHand
										{
											OFFSET -23.009392 0.000000 0.000000
											CHANNELS 3 Xrotation Yrotation Zrotation
											End Site
											{
												OFFSET 0 0 0
											}
										}
									}
								}
							}
						}
					}
				}
			}
		}
	}
}
MOTION
Frames: 12
Frame Time: 0.03333333
3.297163 73.821510 -0.666479 0.000000 0.000000 0.000000 7.697875 -10.334427 1.617795 -50.733819 4.825118 17.921318 42.350366 5.543948 5.049446 3.878503 0.282422 -14.848070 0.000000 0.000000 0.000000 7.697875 -10.334427 1.617795 -28.848813 -2.609887 -28.831396 36.682856 -2.266968 -1.656039 -9.365235 -3.658707 26.992751 0.000000 0.000000 0.000000 7.697875 -10.334427 1.617795 0.000000 0.000001 0.000000 7.618956 1.478170 -2.466292 6.431367 1.228087 -0.932161 0.000000 0.000000 0.000000 6.450692 1.172316 -0.845380 -3.222596 -0.333306 -1.041938 0.000000 0.000000 0.000000 6.450692 1.172316 -0.845380 5.349782 -35.475907 4.326031 -77.161228 -31.121347 -22.573260 0.000012 -27.636899 0.000010 0.000000 0.000000 0.000000 6.450692 1.172316 -0.845380 3.654525 31.100433 -18.637121 -34.428989 31.033094 9.535802 -0.000000 29.388248 0.000000 0.000000 0.000000 0.000000 
3.393764 73.716133 -0.615206 0.000000 0.000000 0.000000 7.772315 -9.913832 1.400799 -51.213639 4.520591 17.935037 42.960749 5.251936 4.822692 3.554143 0.326697 -14.593672 0.000000 0.000000 0.000000 7.772315 -9.913832 1.400799 -28.810691 -2.923859 -28.848305 36.787440 -2.378868 -1.691087 -9.571866 -3.724687 27.101272 0.000000 0.000000 0.000000 7.772315 -9.913832 1.400799 -0.000001 -0.000001 -0.000000 7.623529 1.329586 -2.534279 6.424122 1.146838 -0.979023 0.000000 0.000000 0.000000 6.443376 1.089222 -0.899067 -3.752344 -0.436694 -0.755377 0.000000 0.000000 0.000000 6.443376 1.089222 -0.899067 5.326297 -35.461034 4.512438 -76.482116 -31.696927 -21.754429 -0.000009 -27.909744 0.000002 0.000000 0.000000 0.000000 6.443376 1.089222 -0.899067 3.490721 30.381317 -18.452919 -35.039909 31.378063 10.047762 0.000000 29.551568 0.000001 0.000000 0.000000 0.000000 
3.505122 73.595459 -0.547974 0.000000 0.000000 0.000000 7.721072 -9.558503 1.294759 -51.553810 4.330782 17.817450 43.617762 5.029911 4.707207 3.212892 0.372113 -14.406863 0.000000 0.000000 0.000000 7.721072 -9.558503 1.294759 -28.706571 -3.128284 -29.025029 36.992144 -2.421751 -1.684017 -9.832413 -3.800792 27.184148 0.000000 0.000000 0.000000 7.721072 -9.558503 1.294759 0.000001 -0.000001 0.000000 7.641546 1.216350 -2.613242 6.433796 1.091085 -1.028593 0.000000 0.000000 0.000000 6.452329 1.034178 -0.954309 -4.162272 -0.548712 -0.475729 0.000000 0.000000 0.000000 6.452329 1.034178 -0.954309 5.318307 -35.463684 4.617414 -75.973178 -32.528083 -21.224065 -0.000005 -27.688223 0.000001 0.000000 0.000000 0.000000 6.452329 1.034178 -0.954309 3.343508 29.595678 -18.253978 -35.737619 31.911313 10.742133 0.000002 29.323423 -0.000001 0.000000 0.000000 0.000000 
3.621158 73.474144 -0.476835 0.000000 0.000000 0.000000 7.601787 -9.400701 1.293312 -51.828715 4.463811 17.680701 44.259728 4.791644 4.828142 2.878380 0.416559 -14.311562 0.000000 0.000000 0.000000 7.601787 -9.400701 1.293312 -28.605102 -3.135019 -29.243680 37.242481 -2.408616 -1.686862 -10.065865 -3.871332 27.270439 0.000000 0.000000 0.000000 7.601787 -9.400701 1.293312 -0.000001 0.000000 0.000000 7.674465 1.141889 -2.701401 6.458411 1.059676 -1.078916 0.000000 0.000000 0.000000 6.476069 1.004667 -1.008483 -4.451149 -0.648957 -0.252692 0.000000 0.000000 0.000000 6.476069 1.004667 -1.008483 5.324653 -35.494454 4.670766 -75.597763 -33.466554 -20.902981 -0.000008 -27.148699 0.000005 0.000000 0.000000 0.000000 6.476069 1.004667 -1.008483 3.228994 28.899353 -18.100975 -36.415256 32.483068 11.481571 -0.000002 28.812634 0.000001 0.000000 0.000000 0.000000 
3.726527 73.355858 -0.418287 0.000000 0.000000 0.000000 7.518215 -9.408125 1.223290 -52.170559 4.673835 17.672232 44.906192 4.555799 5.104604 2.573063 0.457146 -14.304849 0.000000 0.000000 0.000000 7.518215 -9.408125 1.223290 -28.597118 -3.098620 -29.243482 37.472214 -2.378835 -1.834205 -10.219937 -3.926426 27.386414 0.000000 0.000000 0.000000 7.518215 -9.408125 1.223290 0.000000 0.000000 0.000000 7.720947 1.104856 -2.795015 6.493217 1.049443 -1.127365 0.000000 0.000000 0.000000 6.510265 0.996293 -1.058785 -4.634163 -0.722704 -0.109982 0.000000 0.000000 0.000000 6.510265 0.996293 -1.058785 5.340326 -35.549530 4.695812 -75.314911 -34.349643 -20.711828 0.000008 -26.522316 0.000016 0.000000 0.000000 0.000000 6.510265 0.996293 -1.058785 3.150982 28.391006 -18.024844 -36.963263 32.955895 12.147696 0.000001 28.192799 -0.000002 0.000000 0.000000 0.000000 
3.828247 73.256699 -0.354959 0.000000 0.000000 0.000000 7.422578 -9.435379 1.179978 -52.432289 4.893653 17.615360 45.462716 4.376241 5.423805 2.319880 0.490895 -14.336115 0.000000 0.000000 0.000000 7.422578 -9.435379 1.179978 -28.582159 -3.109169 -29.232390 37.631989 -2.315480 -2.066352 -10.327565 -3.974101 27.530140 0.000000 0.000000 0.000000 7.422578 -9.435379 1.179978 0.000000 0.000001 0.000000 7.777362 1.100730 -2.887953 6.532553 1.056136 -1.171395 0.000000 0.000000 0.000000 6.549421 1.004022 -1.102939 -4.736997 -0.764132 -0.043794 0.000000 0.000000 0.000000 6.549421 1.004022 -1.102939 5.359581 -35.619037 4.708693 -75.090027 -35.051336 -20.583964 -0.000002 -26.003766 0.000023 0.000000 0.000000 0.000000 6.549421 1.004022 -1.102939 3.105991 28.105016 -18.032312 -37.301647 33.244771 12.665257 0.000000 27.625190 0.000001 0.000000 0.000000 0.000000 
3.924430 73.181931 -0.291794 0.000000 0.000000 0.000000 7.343410 -9.484536 1.190003 -52.526023 4.825002 17.546382 45.926458 4.457389 5.439453 2.118369 0.515863 -14.343286 0.000000 0.000000 0.000000 7.343410 -9.484536 1.190003 -28.578387 -3.128125 -29.257665 37.718979 -2.225086 -2.308111 -10.385321 -4.010075 27.673985 0.000000 0.000000 0.000000 7.343410 -9.484536 1.190003 0.000000 0.000000 0.000000 7.838772 1.121464 -2.975516 6.571231 1.075195 -1.209225 0.000000 0.000000 0.000000 6.588417 1.023078 -1.139721 -4.789396 -0.776671 -0.029818 0.000000 0.000000 0.000000 6.588417 1.023078 -1.139721 5.378051 -35.693517 4.719453 -74.900893 -35.507657 -20.474250 -0.000007 -25.702171 -0.000002 0.000000 0.000000 0.000000 6.588417 1.023078 -1.139721 3.087124 28.020841 -18.114910 -37.404513 33.328127 13.015226 0.000001 27.211317 0.000001 0.000000 0.000000 0.000000 
4.013707 73.138512 -0.233967 0.000000 0.000000 0.000000 7.262525 -9.432951 1.197065 -52.489061 4.515377 17.455665 46.265823 4.643551 5.186824 1.983215 0.530463 -14.273835 0.000000 0.000000 0.000000 7.262525 -9.432951 1.197065 -28.467091 -3.186569 -29.309827 37.689640 -2.227793 -2.488184 -10.392559 -4.033871 27.822029 0.000000 0.000000 0.000000 7.262525 -9.432951 1.197065 0.000000 0.000001 0.000000 7.899786 1.158147 -3.054367 6.605492 1.102275 -1.240137 0.000000 0.000000 0.000000 6.623354 1.049391 -1.169076 -4.819309 -0.770616 -0.035352 0.000000 0.000000 0.000000 6.623354 1.049391 -1.169076 5.393474 -35.766818 4.733689 -74.738901 -35.717586 -20.362071 0.000004 -25.634187 0.000015 0.000000 0.000000 0.000000 6.623354 1.049391 -1.169076 3.086170 28.082786 -18.257166 -37.302716 33.236725 13.229548 -0.000000 26.979981 0.000000 0.000000 0.000000 0.000000 
4.095469 73.122978 -0.189419 0.000000 0.000000 0.000000 7.190237 -9.448681 1.178541 -52.407861 4.243943 17.426956 46.498401 4.833166 4.949718 1.877510 0.541286 -14.213565 0.000000 0.000000 0.000000 7.190237 -9.448681 1.178541 -28.295454 -3.158415 -29.336882 37.559251 -2.269396 -2.518881 -10.335973 -4.031307 27.899077 0.000000 0.000000 0.000000 7.190237 -9.448681 1.178541 0.000000 0.000000 0.000000 7.955349 1.201471 -3.123564 6.633160 1.133663 -1.264343 0.000000 0.000000 0.000000 6.651742 1.079797 -1.191792 -4.848855 -0.759055 -0.031684 0.000000 0.000000 0.000000 6.651742 1.079797 -1.191792 5.405630 -35.836029 4.754110 -74.604852 -35.726800 -20.246588 0.000007 -25.748159 0.000008 0.000000 0.000000 0.000000 6.651742 1.079797 -1.191792 3.094707 28.222436 -18.442742 -37.066105 33.031273 13.371219 0.000000 26.900256 0.000001 0.000000 0.000000 0.000000 
4.176749 73.115158 -0.169285 0.000000 0.000000 0.000000 7.078548 -9.574851 1.125551 -52.315407 4.132738 17.478200 46.694506 4.963901 4.845618 1.764659 0.553903 -14.182578 0.000000 0.000000 0.000000 7.078548 -9.574851 1.125551 -28.054480 -2.967194 -29.351365 37.410025 -2.338151 -2.351988 -10.248298 -4.007368 27.883989 0.000000 0.000000 0.000000 7.078548 -9.574851 1.125551 0.000000 -0.000001 0.000000 8.001381 1.244780 -3.182075 6.653369 1.166443 -1.282491 0.000000 0.000000 0.000000 6.672562 1.111951 -1.208893 -4.892373 -0.753552 -0.002623 0.000000 0.000000 0.000000 6.672562 1.111951 -1.208893 5.415270 -35.899870 4.781424 -74.502959 -35.604058 -20.139135 -0.000001 -25.961167 0.000005 0.000000 0.000000 0.000000 6.672562 1.111951 -1.208893 3.105044 28.377250 -18.658154 -36.776904 32.779526 13.509205 -0.000002 26.908638 0.000003 0.000000 0.000000 0.000000 
4.246802 73.116371 -0.163843 0.000000 0.000000 0.000000 6.973599 -9.734429 1.086426 -52.250643 4.227841 17.546018 46.811822 4.980264 4.885415 1.661662 0.566197 -14.163154 0.000000 0.000000 0.000000 6.973599 -9.734429 1.086426 -27.898312 -2.858275 -29.333286 37.250277 -2.315096 -2.299733 -10.147136 -3.980453 27.873760 0.000000 0.000000 0.000000 6.973599 -9.734429 1.086426 0.000000 0.000000 0.000000 8.035375 1.284771 -3.227726 6.666224 1.198647 -1.295133 0.000000 0.000000 0.000000 6.685798 1.144272 -1.221078 -4.956893 -0.760937 0.053074 0.000000 0.000000 0.000000 6.685798 1.144272 -1.221078 5.423461 -35.957691 4.815027 -74.434992 -35.419128 -20.053623 -0.000003 -26.194001 0.000001 0.000000 0.000000 0.000000 6.685798 1.144272 -1.221078 3.111197 28.501560 -18.894009 -36.506623 32.537638 13.698097 0.000003 26.937110 -0.000003 0.000000 0.000000 0.000000 
4.300248 73.127296 -0.173203 0.000000 0.000000 0.000000 6.919967 -9.877652 1.076761 -52.227390 4.427750 17.580060 46.825987 4.944614 5.020615 1.602057 0.574099 -14.161675 0.000000 0.000000 0.000000 6.919967 -9.877652 1.076761 -27.861269 -2.852460 -29.289415 37.087517 -2.238280 -2.383802 -10.037164 -3.955780 27.896043 0.000000 0.000000 0.000000 6.919967 -9.877652 1.076761 0.000000 0.000000 0.000000 8.057010 1.320603 -3.259054 6.672638 1.229332 -1.302443 0.000000 0.000000 0.000000 6.692300 1.175943 -1.228470 -5.044026 -0.782173 0.124952 0.000000 0.000000 0.000000 6.692300 1.175943 -1.228470 5.431226 -36.010349 4.853818 -74.396729 -35.226947 -19.998664 0.000026 -26.393012 0.000037 0.000000 0.000000 0.000000 6.692300 1.175943 -1.228470 3.109371 28.569271 -19.144221 -36.304464 32.341427 13.968352 0.000001 26.933377 -0.000002 0.000000 0.000000 0.000000 
